<svg width="1366" height="1631" viewBox="0 0 1366 1631" fill="none" xmlns="http://www.w3.org/2000/svg">
<g clip-path="url(#clip0)">
<rect width="1366" height="1631" fill="url(#paint0_linear)"/>
<g opacity="0.1">
<path d="M1398.11 590.22H1360.49V289.26H1398.11C1405.01 289.26 1410.65 283.617 1410.65 276.72C1410.65 269.823 1405.01 264.18 1398.11 264.18H1347.95H1134.77V199.599C1152.95 193.956 1166.12 177.654 1166.12 157.59C1166.12 133.137 1146.68 113.7 1122.23 113.7C1097.78 113.7 1078.34 133.137 1078.34 157.59C1078.34 177.654 1091.51 193.956 1109.69 199.599V264.18H896.51H858.89C851.993 264.18 846.35 269.823 846.35 276.72C846.35 283.617 851.993 289.26 858.89 289.26H883.97V590.22H858.89C851.993 590.22 846.35 595.863 846.35 602.76C846.35 609.657 851.993 615.3 858.89 615.3H896.51H1347.95H1398.11C1405.01 615.3 1410.65 609.657 1410.65 602.76C1410.65 595.863 1405.01 590.22 1398.11 590.22ZM1103.42 157.59C1103.42 146.931 1111.57 138.78 1122.23 138.78C1132.89 138.78 1141.04 146.931 1141.04 157.59C1141.04 168.249 1132.89 176.4 1122.23 176.4C1111.57 176.4 1103.42 168.249 1103.42 157.59ZM909.05 590.22V289.26H1335.41V590.22H909.05Z" fill="#F5B9B9"/>
<path d="M1053.26 326.88C994.322 326.88 946.67 374.532 946.67 433.47C946.67 492.408 994.322 540.06 1053.26 540.06C1112.2 540.06 1159.85 492.408 1159.85 433.47C1159.85 374.532 1112.2 326.88 1053.26 326.88ZM1133.52 420.93H1065.8V353.214C1100.91 358.23 1128.5 385.818 1133.52 420.93ZM1053.26 514.98C1008.12 514.98 971.75 478.614 971.75 433.47C971.75 392.715 1001.85 358.857 1040.72 353.214V433.47C1040.72 440.367 1046.36 446.01 1053.26 446.01H1133.52C1127.87 484.884 1094.02 514.98 1053.26 514.98ZM1285.25 326.88H1210.01C1203.11 326.88 1197.47 332.523 1197.47 339.42C1197.47 346.317 1203.11 351.96 1210.01 351.96H1285.25C1292.15 351.96 1297.79 346.317 1297.79 339.42C1297.79 332.523 1292.15 326.88 1285.25 326.88ZM1285.25 389.58H1210.01C1203.11 389.58 1197.47 395.223 1197.47 402.12C1197.47 409.017 1203.11 414.66 1210.01 414.66H1285.25C1292.15 414.66 1297.79 409.017 1297.79 402.12C1297.79 395.223 1292.15 389.58 1285.25 389.58ZM1285.25 452.28H1210.01C1203.11 452.28 1197.47 457.923 1197.47 464.82C1197.47 471.717 1203.11 477.36 1210.01 477.36H1285.25C1292.15 477.36 1297.79 471.717 1297.79 464.82C1297.79 457.923 1292.15 452.28 1285.25 452.28ZM1285.25 514.98H1210.01C1203.11 514.98 1197.47 520.623 1197.47 527.52C1197.47 534.417 1203.11 540.06 1210.01 540.06H1285.25C1292.15 540.06 1297.79 534.417 1297.79 527.52C1297.79 520.623 1292.15 514.98 1285.25 514.98Z" fill="#F5B9B9"/>
</g>
<g opacity="0.1">
<path d="M202.708 637.252H194.274V650.744H202.708V637.252Z" fill="#F5B9B9"/>
<path d="M541.824 293.078H387.074C376.348 293.078 367.875 301.609 367.875 312.335V380.125H256.503H217.99H217.961C217.7 380.125 217.477 380.231 217.236 380.27C216.849 380.328 216.442 380.357 216.094 380.502C215.969 380.551 215.881 380.657 215.756 380.715C215.321 380.937 214.895 381.189 214.547 381.527C214.508 381.566 214.498 381.614 214.46 381.653C214.073 382.059 213.744 382.514 213.531 383.036C213.28 383.626 213.125 384.274 213.125 384.961V390.648L212.961 423.474C212.961 423.755 213.077 424.026 213.125 424.296V480.906C213.096 481.119 212.999 481.322 212.999 481.535L213.125 506.73V520.367C213.125 523.037 215.291 525.203 217.961 525.203H218.029H256.542H367.875V621.728C367.875 632.455 376.348 641.266 387.074 641.266H541.824C552.559 641.266 561.312 632.455 561.312 621.728V312.335C561.312 301.609 552.559 293.078 541.824 293.078ZM251.329 389.797C249.211 409.083 237.537 416.298 222.797 418.455V390.754V389.797H251.329ZM222.836 515.531L222.797 506.923V486.854C237.556 489.011 249.24 496.226 251.368 515.522H222.836V515.531ZM260.894 515.531C258.68 495.414 242.866 479.474 222.797 477.153V427.836C242.798 425.515 258.554 409.798 260.846 389.797H454.922V515.531H396.891H387.219H377.547H367.875H260.894ZM396.891 525.203H454.922V544.547H464.594V520.367V384.961V360.781H454.922V380.125H396.891V341.437H532.297V563.891H396.891V525.203ZM551.641 621.728C551.641 627.125 547.22 631.594 541.824 631.594H387.074C381.686 631.594 377.547 627.125 377.547 621.728V525.203H387.219V573.562H541.969V331.766H387.219V380.125H377.547V312.335C377.547 306.948 381.686 302.75 387.074 302.75H541.824C547.22 302.75 551.641 306.948 551.641 312.335V621.728V621.728Z" fill="#F5B9B9"/>
<path d="M483.792 312.19H445.105V321.862H483.792V312.19Z" fill="#F5B9B9"/>
<path d="M401.581 321.9C404.252 321.9 406.417 319.735 406.417 317.064C406.417 314.394 404.252 312.228 401.581 312.228C398.911 312.228 396.745 314.394 396.745 317.064C396.745 319.735 398.911 321.9 401.581 321.9Z" fill="#F5B9B9"/>
<path d="M464.449 583.041C453.781 583.041 445.105 591.717 445.105 602.385C445.105 613.053 453.781 621.728 464.449 621.728C475.117 621.728 483.792 613.053 483.792 602.385C483.792 591.717 475.117 583.041 464.449 583.041ZM464.449 612.057C459.119 612.057 454.777 607.714 454.777 602.385C454.777 597.055 459.119 592.713 464.449 592.713C469.778 592.713 474.12 597.055 474.12 602.385C474.12 607.714 469.787 612.057 464.449 612.057ZM406.359 452.5C406.359 423.174 382.508 399.324 353.183 399.324C323.858 399.324 300.007 423.174 300.007 452.5C300.007 481.815 323.858 505.676 353.183 505.676C382.508 505.676 406.359 481.825 406.359 452.5ZM353.183 496.004C329.197 496.004 309.679 476.486 309.679 452.5C309.679 428.513 329.197 408.995 353.183 408.995C377.17 408.995 396.687 428.513 396.687 452.5C396.687 476.486 377.179 496.004 353.183 496.004Z" fill="#F5B9B9"/>
<path d="M358.203 418.812H348.531V429.442C338.859 431.618 338.743 436.763 338.743 442.779C338.743 451.029 345.185 457.49 353.445 457.49C357.758 457.49 358.097 461.137 358.097 462.259C358.097 464.88 355.476 467.007 352.236 467.007L338.859 466.92V476.592L348.531 476.65V486.516H358.203V475.615C367.875 473.468 367.846 468.303 367.846 462.259C367.846 453.892 361.753 447.818 353.445 447.818C349.972 447.818 348.386 445.197 348.386 442.779C348.386 440.149 351.056 438.011 354.305 438.011L367.875 437.963V428.291L358.203 428.32V418.812ZM198.366 341.244C227.768 341.244 251.696 317.384 251.696 288.049C251.696 258.733 227.778 234.863 198.366 234.853C169.099 234.853 145.296 258.714 145.296 288.049C145.286 317.384 169.099 341.244 198.366 341.244V341.244ZM198.366 244.525C222.439 244.535 242.025 264.062 242.025 288.049C242.025 312.045 222.439 331.572 198.366 331.572C174.438 331.572 154.968 312.045 154.968 288.049C154.958 264.053 174.438 244.525 198.366 244.525V244.525Z" fill="#F5B9B9"/>
<path d="M197.457 303.176C195.58 303.176 193.859 302.586 192.621 301.512L189.429 298.756L183.916 305.139L186.856 307.895C188.839 309.607 193.781 310.546 193.781 311.068V322.094H203.453V310.681C213.125 308.708 212.757 303.708 212.757 297.808C212.757 289.799 206.809 283.987 198.888 283.987C195 283.987 193.133 281.046 193.133 278.319C193.133 275.34 195.996 272.922 199.584 272.922C201.412 272.922 203.163 273.531 204.42 274.615L207.612 277.352L213.077 270.939L210.243 268.202C208.241 266.49 203.453 265.562 203.453 265.039V254.391H193.781V265.417C184.109 267.399 184.351 272.409 184.351 278.309C184.351 286.211 190.667 292.411 198.579 292.411C203.443 292.411 203.888 296.531 203.888 297.798C203.888 300.767 201.035 303.176 197.457 303.176ZM82.0808 331.572C52.833 331.572 29.0305 355.433 29.0305 384.767C29.0305 414.102 52.833 437.963 82.0808 437.963C111.493 437.963 135.421 414.102 135.421 384.767C135.421 355.442 111.493 331.582 82.0808 331.572ZM82.0808 428.291C58.1622 428.291 38.7024 408.763 38.7024 384.767C38.7024 360.772 58.1622 341.244 82.0808 341.244C106.154 341.254 125.749 360.781 125.749 384.767C125.749 408.763 106.154 428.291 82.0808 428.291Z" fill="#F5B9B9"/>
<path d="M83.2607 369.641C85.0887 369.641 86.8683 370.25 88.1063 371.324L91.3077 374.07L96.8013 367.668L94.0642 364.921C92.0718 363.209 87.3906 362.28 87.3906 361.758V351.109H77.7187V362.135C68.0468 364.118 68.1919 369.128 68.1919 375.038C68.1919 382.939 74.4593 389.139 82.3709 389.139C87.2262 389.139 87.6421 393.259 87.6421 394.526C87.6421 397.486 84.7502 399.894 81.1812 399.894C79.3146 399.894 77.564 399.295 76.3453 398.24L73.1633 395.474L67.6406 401.838L70.6776 404.604C72.6603 406.326 77.7187 407.264 77.7187 407.787V418.812H87.3906V407.4C87.3906 405.427 96.5789 400.417 96.5789 394.526C96.5789 386.518 90.592 380.705 82.6707 380.705C78.947 380.705 76.8773 377.862 76.8773 375.038C76.8869 372.059 79.6821 369.641 83.2607 369.641V369.641ZM198.366 563.697C169.099 563.697 145.296 587.558 145.296 616.892C145.296 646.227 169.099 670.088 198.366 670.088C227.768 670.088 251.696 646.227 251.696 616.892C251.687 587.567 227.768 563.707 198.366 563.697V563.697ZM198.366 660.416C174.437 660.416 154.968 640.888 154.968 616.892C154.968 592.897 174.437 573.369 198.366 573.369C222.439 573.379 242.025 592.906 242.025 616.892C242.015 640.888 222.429 660.416 198.366 660.416V660.416Z" fill="#F5B9B9"/>
<path d="M199.536 601.766C201.364 601.766 203.134 602.375 204.391 603.458L207.602 606.195L213.077 599.783L210.243 597.046C208.231 595.334 203.453 594.405 203.453 593.883V583.234H193.781V594.26C184.109 596.243 184.351 601.253 184.351 607.153C184.351 615.055 190.667 621.254 198.579 621.254C203.443 621.254 203.888 625.375 203.888 626.642C203.888 629.601 201.006 632.01 197.428 632.01C195.551 632.01 193.849 631.42 192.601 630.346L189.419 627.59L183.916 633.973L187.117 636.729C189.883 639.118 193.568 640.443 197.466 640.443C205.697 640.443 212.39 634.253 212.39 626.642C212.39 618.633 206.635 612.821 198.704 612.821C194.816 612.821 193.046 609.88 193.046 607.153C193.037 604.184 195.957 601.766 199.536 601.766ZM82.0808 466.978C52.833 466.978 29.0305 490.839 29.0305 520.174C29.0305 549.509 52.833 573.369 82.0808 573.369C111.493 573.369 135.421 549.509 135.421 520.174C135.421 490.849 111.493 466.988 82.0808 466.978ZM82.0808 563.697C58.1622 563.697 38.7024 544.17 38.7024 520.174C38.7024 496.178 58.1622 476.65 82.0808 476.65C106.154 476.66 125.749 496.187 125.749 520.174C125.749 544.17 106.154 563.697 82.0808 563.697Z" fill="#F5B9B9"/>
<path d="M83.2607 505.047C85.0887 505.047 86.8683 505.656 88.1063 506.73L91.3077 509.477L96.8013 503.074L94.0642 500.327C92.0718 498.615 87.3906 497.687 87.3906 497.164V486.516H77.7187V497.542C68.0468 499.524 68.1919 504.534 68.1919 510.444C68.1919 518.346 74.4593 524.545 82.3709 524.545C87.2262 524.545 87.6421 528.666 87.6421 529.933C87.6421 532.892 84.7502 535.301 81.1812 535.301C79.3146 535.301 77.564 534.701 76.3453 533.647L73.1633 530.881L67.6406 537.245L70.6776 540.011C72.6603 541.732 77.7187 542.671 77.7187 543.193V554.219H87.3906V542.806C87.3906 540.833 96.5789 535.823 96.5789 529.933C96.5789 521.924 90.592 516.112 82.6707 516.112C78.947 516.112 76.8773 513.268 76.8773 510.444C76.8869 507.465 79.6821 505.047 83.2607 505.047V505.047Z" fill="#F5B9B9"/>
<path d="M358.203 360.781H290.5V283.406H261.484V293.078H280.828V370.453H358.203V360.781Z" fill="#F5B9B9"/>
<path d="M261.484 621.922H290.5V544.547H358.203V534.875H280.828V612.25H261.484V621.922Z" fill="#F5B9B9"/>
<path d="M193.646 379.961H183.974V389.632H193.646V379.961Z" fill="#F5B9B9"/>
<path d="M154.958 379.912H145.286V389.584H154.958V379.912Z" fill="#F5B9B9"/>
<path d="M174.302 379.941H164.63V389.613H174.302V379.941Z" fill="#F5B9B9"/>
<path d="M154.958 515.27H145.286V524.942H154.958V515.27Z" fill="#F5B9B9"/>
<path d="M193.646 515.318H183.974V524.99H193.646V515.318Z" fill="#F5B9B9"/>
<path d="M174.302 515.289H164.63V524.961H174.302V515.289Z" fill="#F5B9B9"/>
</g>
</g>
<defs>
<linearGradient id="paint0_linear" x1="0" y1="816.583" x2="1339.5" y2="816.583" gradientUnits="userSpaceOnUse">
<stop stop-color="#971F3A"/>
<stop offset="0.71573" stop-color="#971F3A" stop-opacity="0.76"/>
</linearGradient>
<clipPath id="clip0">
<rect width="1366" height="1631" fill="white"/>
</clipPath>
</defs>
</svg>
