<svg width="60" height="60" viewBox="0 0 60 60" fill="none" xmlns="http://www.w3.org/2000/svg">
<path d="M40.7025 30.5474C40.8771 30.7216 41.0157 30.9285 41.1102 31.1563C41.2047 31.3841 41.2534 31.6283 41.2534 31.8749C41.2534 32.1216 41.2047 32.3658 41.1102 32.5936C41.0157 32.8214 40.8771 33.0283 40.7025 33.2024L29.4525 44.4524C29.2783 44.627 29.0714 44.7656 28.8436 44.8601C28.6158 44.9546 28.3716 45.0033 28.125 45.0033C27.8784 45.0033 27.6342 44.9546 27.4064 44.8601C27.1786 44.7656 26.9717 44.627 26.7975 44.4524L21.1725 38.8274C20.9982 38.6531 20.8599 38.4461 20.7655 38.2184C20.6712 37.9906 20.6226 37.7465 20.6226 37.4999C20.6226 37.2534 20.6712 37.0093 20.7655 36.7815C20.8599 36.5537 20.9982 36.3468 21.1725 36.1724C21.5246 35.8204 22.0021 35.6226 22.5 35.6226C22.7465 35.6226 22.9907 35.6711 23.2184 35.7655C23.4462 35.8598 23.6532 35.9981 23.8275 36.1724L28.125 40.4737L38.0475 30.5474C38.2217 30.3728 38.4286 30.2343 38.6564 30.1398C38.8842 30.0452 39.1284 29.9966 39.375 29.9966C39.6216 29.9966 39.8658 30.0452 40.0936 30.1398C40.3214 30.2343 40.5283 30.3728 40.7025 30.5474V30.5474Z" fill="#971F3A"/>
<path d="M13.125 0C13.6223 0 14.0992 0.197544 14.4508 0.549175C14.8025 0.900806 15 1.37772 15 1.875V3.75H45V1.875C45 1.37772 45.1975 0.900806 45.5492 0.549175C45.9008 0.197544 46.3777 0 46.875 0C47.3723 0 47.8492 0.197544 48.2008 0.549175C48.5525 0.900806 48.75 1.37772 48.75 1.875V3.75H52.5C54.4891 3.75 56.3968 4.54018 57.8033 5.9467C59.2098 7.35322 60 9.26088 60 11.25V52.5C60 54.4891 59.2098 56.3968 57.8033 57.8033C56.3968 59.2098 54.4891 60 52.5 60H7.5C5.51088 60 3.60322 59.2098 2.1967 57.8033C0.790176 56.3968 0 54.4891 0 52.5V11.25C0 9.26088 0.790176 7.35322 2.1967 5.9467C3.60322 4.54018 5.51088 3.75 7.5 3.75H11.25V1.875C11.25 1.37772 11.4475 0.900806 11.7992 0.549175C12.1508 0.197544 12.6277 0 13.125 0V0ZM7.5 7.5C6.50544 7.5 5.55161 7.89509 4.84835 8.59835C4.14509 9.30161 3.75 10.2554 3.75 11.25V52.5C3.75 53.4946 4.14509 54.4484 4.84835 55.1516C5.55161 55.8549 6.50544 56.25 7.5 56.25H52.5C53.4946 56.25 54.4484 55.8549 55.1516 55.1516C55.8549 54.4484 56.25 53.4946 56.25 52.5V11.25C56.25 10.2554 55.8549 9.30161 55.1516 8.59835C54.4484 7.89509 53.4946 7.5 52.5 7.5H7.5Z" fill="#971F3A"/>
<path d="M9.375 15C9.375 14.5027 9.57254 14.0258 9.92418 13.6742C10.2758 13.3225 10.7527 13.125 11.25 13.125H48.75C49.2473 13.125 49.7242 13.3225 50.0758 13.6742C50.4275 14.0258 50.625 14.5027 50.625 15V18.75C50.625 19.2473 50.4275 19.7242 50.0758 20.0758C49.7242 20.4275 49.2473 20.625 48.75 20.625H11.25C10.7527 20.625 10.2758 20.4275 9.92418 20.0758C9.57254 19.7242 9.375 19.2473 9.375 18.75V15Z" fill="#971F3A"/>
</svg>
