<svg width="60" height="60" viewBox="0 0 60 60" fill="none" xmlns="http://www.w3.org/2000/svg">
<g clip-path="url(#clip0)">
<path d="M52.5 0H7.5C5.51088 0 3.60322 0.790176 2.1967 2.1967C0.790176 3.60322 0 5.51088 0 7.5L0 52.5C0 54.4891 0.790176 56.3968 2.1967 57.8033C3.60322 59.2098 5.51088 60 7.5 60H52.5C54.4891 60 56.3968 59.2098 57.8033 57.8033C59.2098 56.3968 60 54.4891 60 52.5V7.5C60 5.51088 59.2098 3.60322 57.8033 2.1967C56.3968 0.790176 54.4891 0 52.5 0V0ZM3.75 14.4638C3.75 12.69 5.43 11.25 7.5 11.25H52.5C54.57 11.25 56.25 12.69 56.25 14.4638V53.0362C56.25 54.81 54.57 56.25 52.5 56.25H7.5C5.43 56.25 3.75 54.81 3.75 53.0362V14.4638Z" fill="#971F3A"/>
<path d="M24.375 26.25C25.3696 26.25 26.3234 25.8549 27.0266 25.1516C27.7299 24.4484 28.125 23.4946 28.125 22.5C28.125 21.5054 27.7299 20.5516 27.0266 19.8484C26.3234 19.1451 25.3696 18.75 24.375 18.75C23.3804 18.75 22.4266 19.1451 21.7234 19.8484C21.0201 20.5516 20.625 21.5054 20.625 22.5C20.625 23.4946 21.0201 24.4484 21.7234 25.1516C22.4266 25.8549 23.3804 26.25 24.375 26.25ZM35.625 26.25C36.6196 26.25 37.5734 25.8549 38.2766 25.1516C38.9799 24.4484 39.375 23.4946 39.375 22.5C39.375 21.5054 38.9799 20.5516 38.2766 19.8484C37.5734 19.1451 36.6196 18.75 35.625 18.75C34.6304 18.75 33.6766 19.1451 32.9734 19.8484C32.2701 20.5516 31.875 21.5054 31.875 22.5C31.875 23.4946 32.2701 24.4484 32.9734 25.1516C33.6766 25.8549 34.6304 26.25 35.625 26.25ZM46.875 26.25C47.8696 26.25 48.8234 25.8549 49.5266 25.1516C50.2299 24.4484 50.625 23.4946 50.625 22.5C50.625 21.5054 50.2299 20.5516 49.5266 19.8484C48.8234 19.1451 47.8696 18.75 46.875 18.75C45.8804 18.75 44.9266 19.1451 44.2234 19.8484C43.5201 20.5516 43.125 21.5054 43.125 22.5C43.125 23.4946 43.5201 24.4484 44.2234 25.1516C44.9266 25.8549 45.8804 26.25 46.875 26.25ZM13.125 37.5C14.1196 37.5 15.0734 37.1049 15.7766 36.4016C16.4799 35.6984 16.875 34.7446 16.875 33.75C16.875 32.7554 16.4799 31.8016 15.7766 31.0984C15.0734 30.3951 14.1196 30 13.125 30C12.1304 30 11.1766 30.3951 10.4733 31.0984C9.77009 31.8016 9.375 32.7554 9.375 33.75C9.375 34.7446 9.77009 35.6984 10.4733 36.4016C11.1766 37.1049 12.1304 37.5 13.125 37.5ZM24.375 37.5C25.3696 37.5 26.3234 37.1049 27.0266 36.4016C27.7299 35.6984 28.125 34.7446 28.125 33.75C28.125 32.7554 27.7299 31.8016 27.0266 31.0984C26.3234 30.3951 25.3696 30 24.375 30C23.3804 30 22.4266 30.3951 21.7234 31.0984C21.0201 31.8016 20.625 32.7554 20.625 33.75C20.625 34.7446 21.0201 35.6984 21.7234 36.4016C22.4266 37.1049 23.3804 37.5 24.375 37.5ZM35.625 37.5C36.6196 37.5 37.5734 37.1049 38.2766 36.4016C38.9799 35.6984 39.375 34.7446 39.375 33.75C39.375 32.7554 38.9799 31.8016 38.2766 31.0984C37.5734 30.3951 36.6196 30 35.625 30C34.6304 30 33.6766 30.3951 32.9734 31.0984C32.2701 31.8016 31.875 32.7554 31.875 33.75C31.875 34.7446 32.2701 35.6984 32.9734 36.4016C33.6766 37.1049 34.6304 37.5 35.625 37.5ZM46.875 37.5C47.8696 37.5 48.8234 37.1049 49.5266 36.4016C50.2299 35.6984 50.625 34.7446 50.625 33.75C50.625 32.7554 50.2299 31.8016 49.5266 31.0984C48.8234 30.3951 47.8696 30 46.875 30C45.8804 30 44.9266 30.3951 44.2234 31.0984C43.5201 31.8016 43.125 32.7554 43.125 33.75C43.125 34.7446 43.5201 35.6984 44.2234 36.4016C44.9266 37.1049 45.8804 37.5 46.875 37.5ZM13.125 48.75C14.1196 48.75 15.0734 48.3549 15.7766 47.6516C16.4799 46.9484 16.875 45.9946 16.875 45C16.875 44.0054 16.4799 43.0516 15.7766 42.3484C15.0734 41.6451 14.1196 41.25 13.125 41.25C12.1304 41.25 11.1766 41.6451 10.4733 42.3484C9.77009 43.0516 9.375 44.0054 9.375 45C9.375 45.9946 9.77009 46.9484 10.4733 47.6516C11.1766 48.3549 12.1304 48.75 13.125 48.75ZM24.375 48.75C25.3696 48.75 26.3234 48.3549 27.0266 47.6516C27.7299 46.9484 28.125 45.9946 28.125 45C28.125 44.0054 27.7299 43.0516 27.0266 42.3484C26.3234 41.6451 25.3696 41.25 24.375 41.25C23.3804 41.25 22.4266 41.6451 21.7234 42.3484C21.0201 43.0516 20.625 44.0054 20.625 45C20.625 45.9946 21.0201 46.9484 21.7234 47.6516C22.4266 48.3549 23.3804 48.75 24.375 48.75ZM35.625 48.75C36.6196 48.75 37.5734 48.3549 38.2766 47.6516C38.9799 46.9484 39.375 45.9946 39.375 45C39.375 44.0054 38.9799 43.0516 38.2766 42.3484C37.5734 41.6451 36.6196 41.25 35.625 41.25C34.6304 41.25 33.6766 41.6451 32.9734 42.3484C32.2701 43.0516 31.875 44.0054 31.875 45C31.875 45.9946 32.2701 46.9484 32.9734 47.6516C33.6766 48.3549 34.6304 48.75 35.625 48.75Z" fill="#971F3A"/>
</g>
<defs>
<clipPath id="clip0">
<rect width="60" height="60" fill="white"/>
</clipPath>
</defs>
</svg>
