<svg width="397" height="67" viewBox="0 0 397 67" fill="none" xmlns="http://www.w3.org/2000/svg">
<path d="M45.1757 36.2569V32.8408C45.1757 31.5541 44.4228 30.6887 43.2098 30.6773C42.8643 30.6528 42.519 30.7297 42.21 30.8999C41.901 31.0701 41.6397 31.3275 41.4531 31.6452C41.2831 31.337 41.0399 31.0844 40.7491 30.9141C40.4584 30.7437 40.1308 30.6619 39.8009 30.6773C39.5134 30.6615 39.2271 30.7279 38.9703 30.8697C38.7136 31.0115 38.4953 31.2239 38.337 31.4858V30.8139H37.2495V36.2569H38.3474V33.2393C38.3474 32.2942 38.8285 31.7933 39.5709 31.7933C40.2924 31.7933 40.6584 32.3056 40.6584 33.228V36.2569H41.7564V33.2393C41.7564 32.2942 42.2583 31.7933 42.9798 31.7933C43.7222 31.7933 44.0777 32.3056 44.0777 33.228V36.2569H45.1757ZM61.4254 30.8139H59.6477V29.1629H58.5498V30.8139H57.5355V31.8957H58.5498V34.378C58.5498 35.642 58.9994 36.3936 60.2856 36.3936C60.7661 36.3951 61.2372 36.2491 61.6449 35.9723L61.3313 34.9588C61.0396 35.1482 60.7086 35.254 60.3692 35.2663C59.8255 35.2663 59.6477 34.9018 59.6477 34.3553V31.8957H61.4254V30.8139ZM70.7004 30.6773C70.4353 30.6688 70.173 30.7383 69.9411 30.8786C69.7092 31.0189 69.5164 31.2247 69.3829 31.4744V30.8139H68.3059V36.2569H69.3933V33.2052C69.3933 32.3056 69.7489 31.8046 70.46 31.8046C70.6926 31.8011 70.9236 31.8476 71.1397 31.9413L71.4743 30.8253C71.2259 30.7285 70.9642 30.6784 70.7004 30.6773ZM56.678 31.2467C56.0625 30.8481 55.3547 30.6504 54.639 30.6773C53.3737 30.6773 52.5581 31.3377 52.5581 32.4195C52.5581 33.3077 53.1646 33.8543 54.2834 34.0251L54.7958 34.1048C55.3918 34.1958 55.6742 34.3666 55.6742 34.6741C55.6742 35.0954 55.2768 35.3345 54.5344 35.3345C53.9372 35.3532 53.3516 35.1527 52.8717 34.7652L52.3594 35.6875C52.9928 36.1693 53.7516 36.4168 54.5239 36.3936C55.9669 36.3936 56.8034 35.6533 56.8034 34.6171C56.8034 33.6606 56.1447 33.1596 55.0572 32.9888L54.5449 32.9091C54.0743 32.8408 53.6979 32.7384 53.6979 32.374C53.6979 31.9754 54.0533 31.7363 54.6494 31.7363C55.1968 31.7453 55.733 31.906 56.2075 32.2032L56.678 31.2467ZM85.8104 30.6773C85.5453 30.6688 85.2829 30.7383 85.051 30.8786C84.8191 31.0189 84.6263 31.2247 84.4929 31.4744V30.8139H83.4158V36.2569H84.5033V33.2052C84.5033 32.3056 84.8588 31.8046 85.5698 31.8046C85.8025 31.8011 86.0335 31.8475 86.2496 31.9413L86.5842 30.8253C86.3359 30.7285 86.0742 30.6784 85.8104 30.6773ZM71.7984 33.5354C71.7984 35.1866 72.8546 36.3936 74.4649 36.3936C75.1178 36.4293 75.7593 36.1977 76.2634 35.7445L75.7406 34.7879C75.3646 35.1 74.9062 35.2718 74.4335 35.2776C73.5656 35.2663 72.9278 34.583 72.9278 33.5354C72.9278 32.4878 73.5656 31.8046 74.4335 31.7933C74.9062 31.7991 75.3646 31.9708 75.7406 32.2829L76.2634 31.3264C75.7593 30.8731 75.1178 30.6416 74.4649 30.6773C72.8546 30.6773 71.7984 31.8843 71.7984 33.5354ZM81.9832 33.5354V30.8139H80.8958V31.4744C80.7101 31.2139 80.4699 31.0056 80.1952 30.8669C79.9205 30.7282 79.6193 30.6632 79.3167 30.6773C77.9156 30.6773 76.8176 31.873 76.8176 33.5354C76.8176 35.1979 77.9156 36.3936 79.3167 36.3936C79.6193 36.4077 79.9205 36.3426 80.1952 36.2039C80.4699 36.0653 80.7101 35.857 80.8958 35.5965V36.2569H81.9832V33.5354ZM77.9365 33.5354C77.9365 32.5789 78.5116 31.7933 79.4528 31.7933C80.352 31.7933 80.9585 32.5447 80.9585 33.5354C80.9585 34.526 80.352 35.2776 79.4528 35.2776C78.5116 35.2776 77.9365 34.4919 77.9365 33.5354ZM64.8134 30.6773C63.3494 30.6773 62.3247 31.8387 62.3247 33.5354C62.3247 35.2663 63.3912 36.3936 64.8866 36.3936C65.6326 36.4221 66.3622 36.1505 66.9361 35.6306L66.4028 34.7538C65.9898 35.1142 65.4784 35.3145 64.9493 35.3231C64.2486 35.3231 63.6108 34.9702 63.4539 33.9908H67.1661C67.1766 33.8429 67.187 33.6949 67.187 33.5354C67.1766 31.8387 66.2146 30.6773 64.8134 30.6773ZM64.7924 31.7363C65.4931 31.7363 65.9427 32.2145 66.0577 33.0572H63.4644C63.5795 32.2715 64.0186 31.7363 64.7924 31.7363ZM92.074 33.5354V28.6277H90.9864V31.4744C90.8008 31.2139 90.5606 31.0056 90.2859 30.8669C90.0112 30.7283 89.71 30.6632 89.4075 30.6773C88.0063 30.6773 86.9083 31.873 86.9083 33.5354C86.9083 35.1979 88.0063 36.3936 89.4075 36.3936C89.71 36.4076 90.0112 36.3426 90.2859 36.2039C90.5606 36.0652 90.8008 35.857 90.9864 35.5965V36.2569H92.074V33.5354ZM93.3449 35.7546C93.388 35.7543 93.4307 35.7635 93.4705 35.7817C93.5087 35.7991 93.5435 35.8242 93.5732 35.8558C93.6025 35.8873 93.626 35.9247 93.6423 35.9659C93.659 36.0082 93.6676 36.0538 93.6676 36.0999C93.6676 36.1459 93.659 36.1915 93.6423 36.2338C93.6259 36.2748 93.6024 36.3121 93.5732 36.3435C93.5435 36.375 93.5087 36.4003 93.4705 36.4179C93.4308 36.4364 93.3881 36.4458 93.3449 36.4455C93.2814 36.4462 93.2191 36.4265 93.1658 36.3889C93.1124 36.3512 93.0705 36.2973 93.0452 36.2338C93.0285 36.1915 93.02 36.1459 93.02 36.0999C93.02 36.0538 93.0285 36.0082 93.0452 35.9659C93.078 35.8823 93.1397 35.8161 93.2171 35.7817C93.2576 35.7635 93.301 35.7543 93.3449 35.7546ZM93.3449 36.3693C93.3778 36.3696 93.4104 36.3624 93.4406 36.3481C93.4696 36.3344 93.4959 36.3149 93.5183 36.2905C93.5643 36.2398 93.5902 36.1714 93.5902 36.1C93.5902 36.0287 93.5643 35.9602 93.5183 35.9095C93.496 35.8852 93.4696 35.8659 93.4406 35.8524C93.4103 35.8384 93.3778 35.8313 93.3449 35.8317C93.3114 35.8314 93.2782 35.8384 93.2473 35.8524C93.2101 35.8697 93.1773 35.8966 93.1519 35.9308C93.1264 35.965 93.109 36.0055 93.1013 36.0487C93.0935 36.0919 93.0955 36.1366 93.1072 36.1787C93.1189 36.2209 93.14 36.2593 93.1684 36.2905C93.1911 36.3151 93.2179 36.3346 93.2473 36.3481C93.2782 36.3623 93.3114 36.3695 93.3449 36.3693ZM93.3636 35.9383C93.3948 35.9361 93.4257 35.9459 93.4511 35.9659C93.4612 35.9749 93.4692 35.9864 93.4745 35.9994C93.4799 36.0124 93.4823 36.0266 93.4818 36.0408C93.4821 36.053 93.4801 36.0651 93.4759 36.0764C93.4717 36.0877 93.4654 36.0979 93.4573 36.1064C93.4379 36.125 93.4135 36.1362 93.3877 36.1381L93.4841 36.2592H93.4087L93.3193 36.1389H93.2905V36.2592H93.2275V35.9383H93.3636ZM93.2905 35.9985V36.084H93.3628C93.3767 36.0847 93.3905 36.0811 93.4025 36.0734C93.4073 36.0698 93.4113 36.0649 93.4139 36.0592C93.4164 36.0535 93.4176 36.0471 93.4172 36.0408C93.4175 36.0345 93.4163 36.0283 93.4138 36.0227C93.4112 36.0172 93.4073 36.0124 93.4025 36.009C93.3905 36.0014 93.3767 35.9977 93.3628 35.9985H93.2905ZM88.0272 33.5354C88.0272 32.5789 88.6024 31.7933 89.5434 31.7933C90.4426 31.7933 91.0491 32.5447 91.0491 33.5354C91.0491 34.526 90.4426 35.2776 89.5434 35.2776C88.6024 35.2776 88.0272 34.4919 88.0272 33.5354ZM51.3033 33.5354V30.8139H50.2158V31.4744C50.0301 31.2139 49.7899 31.0056 49.5152 30.8669C49.2405 30.7282 48.9393 30.6632 48.6368 30.6773C47.2356 30.6773 46.1377 31.873 46.1377 33.5354C46.1377 35.1979 47.2356 36.3936 48.6368 36.3936C48.9393 36.4077 49.2405 36.3426 49.5152 36.2039C49.7899 36.0653 50.0301 35.857 50.2158 35.5965V36.2569H51.3033V33.5354ZM47.2566 33.5354C47.2566 32.5789 47.8317 31.7933 48.7728 31.7933C49.672 31.7933 50.2785 32.5447 50.2785 33.5354C50.2785 34.526 49.672 35.2776 48.7728 35.2776C47.8317 35.2776 47.2566 34.4919 47.2566 33.5354Z" fill="#D6D6D6"/>
<path d="M23.3741 27.0654H16.7979V39.9345H23.3741V27.0654Z" fill="#D6D6D6"/>
<path d="M17.2156 33.5C17.2146 32.2606 17.4725 31.0372 17.9698 29.9224C18.4672 28.8076 19.1909 27.8306 20.0862 27.0654C18.9775 26.1164 17.6459 25.5262 16.2437 25.3624C14.8416 25.1985 13.4253 25.4675 12.1569 26.1387C10.8885 26.8098 9.81905 27.8561 9.07086 29.1578C8.32267 30.4596 7.9259 31.9643 7.9259 33.5C7.9259 35.0357 8.32267 36.5404 9.07086 37.8421C9.81905 39.1439 10.8885 40.1901 12.1569 40.8613C13.4253 41.5325 14.8416 41.8015 16.2437 41.6376C17.6459 41.4737 18.9775 40.8836 20.0862 39.9345C19.1909 39.1694 18.4672 38.1924 17.9698 37.0776C17.4725 35.9628 17.2146 34.7394 17.2156 33.5Z" fill="#D6D6D6"/>
<path d="M32.2458 33.5C32.2459 35.0357 31.8492 36.5404 31.101 37.8421C30.3529 39.1439 29.2835 40.1901 28.0151 40.8613C26.7467 41.5325 25.3305 41.8015 23.9283 41.6376C22.5261 41.4738 21.1946 40.8836 20.0859 39.9346C20.9804 39.1686 21.7036 38.1915 22.2008 37.0768C22.6981 35.9622 22.9565 34.7392 22.9565 33.5C22.9565 32.2608 22.6981 31.0378 22.2008 29.9232C21.7036 28.8085 20.9804 27.8314 20.0859 27.0654C21.1946 26.1164 22.5261 25.5262 23.9283 25.3624C25.3305 25.1985 26.7467 25.4675 28.0151 26.1387C29.2835 26.8099 30.3529 27.8561 31.101 29.1579C31.8492 30.4596 32.2459 31.9643 32.2458 33.5Z" fill="#A6A6A6"/>
<path d="M31.5288 38.5715V38.308H31.6264V38.2544H31.3779V38.308H31.4755V38.5715H31.5288ZM32.0112 38.5715V38.2538H31.935L31.8474 38.4723L31.7598 38.2538H31.6836V38.5715H31.7374V38.3319L31.8195 38.5385H31.8753L31.9574 38.3314V38.5715H32.0112Z" fill="#D6D6D6"/>
<path d="M130.453 36.4629L131.954 27.1619H134.355L132.854 36.4629H130.453Z" fill="#D6D6D6"/>
<path d="M141.564 27.3909C141.09 27.2032 140.342 27 139.412 27C137.039 27 135.368 28.2626 135.352 30.0701C135.339 31.4071 136.546 32.1537 137.456 32.5969C138.392 33.0519 138.707 33.3427 138.703 33.7499C138.695 34.3735 137.955 34.6591 137.265 34.6591C136.304 34.6591 135.794 34.5178 135.002 34.171L134.695 34.023L134.358 36.1044C134.918 36.3635 135.956 36.5888 137.034 36.5999C139.557 36.5999 141.196 35.3527 141.215 33.4244C141.224 32.3635 140.585 31.561 139.199 30.8969C138.359 30.4655 137.844 30.1798 137.85 29.7432C137.85 29.356 138.285 28.9422 139.226 28.9422C140.013 28.9311 140.579 29.1108 141.023 29.3007L141.238 29.406L141.564 27.3909Z" fill="#D6D6D6"/>
<path d="M144.762 33.1645C144.961 32.6299 145.719 30.5655 145.719 30.5655C145.705 30.5905 145.916 30.0259 146.038 29.6776L146.2 30.4801C146.2 30.4801 146.66 32.6999 146.755 33.1645H144.762ZM147.725 27.1714H145.868C145.293 27.1714 144.862 27.3364 144.61 27.943L141.043 36.4643H143.566C143.566 36.4643 143.977 35.3187 144.071 35.0669C144.345 35.0669 146.796 35.0728 147.145 35.0728C147.218 35.3975 147.438 36.4643 147.438 36.4643H149.667L147.725 27.1714Z" fill="#D6D6D6"/>
<path d="M128.437 27.1693L126.086 33.5098L125.835 32.2214C125.397 30.7371 124.034 29.1269 122.508 28.32L124.66 36.4548L127.2 36.4533L130.982 27.1693H128.437Z" fill="#D6D6D6"/>
<path d="M123.906 27.1634H120.032L120 27.3563C123.014 28.1272 125.007 29.9855 125.835 32.2214L124.995 27.9475C124.847 27.3593 124.426 27.1841 123.906 27.1634Z" fill="#AAAAAA"/>
<path d="M198.08 32.5144H200.503V26.8842H197.866V27.6681L197.367 26.8842H195.087V27.8819L194.659 26.8842H190.454C190.312 26.8842 190.169 26.9554 190.027 26.9554C189.884 26.9554 189.813 27.0267 189.67 27.098C189.528 27.1692 189.457 27.1692 189.314 27.2405V26.8842H177.269L176.913 27.8107L176.557 26.8842H173.706V27.8819L173.278 26.8842H170.998L170 29.3073V32.5144H171.639L171.924 31.7305H172.494L172.78 32.5144H185.323V31.8017L185.822 32.5144H189.314V32.0868C189.385 32.1581 189.528 32.1581 189.599 32.2294C189.67 32.3006 189.813 32.3006 189.884 32.3719C190.027 32.4432 190.169 32.4432 190.312 32.4432H192.878L193.163 31.6592H193.733L194.018 32.4432H197.51V31.7305L198.08 32.5144ZM202 39.6414V34.3674H182.401L181.902 35.0801L181.403 34.3674H175.702V39.9977H181.403L181.902 39.285L182.401 39.9977H185.964V38.7862H185.822C186.321 38.7862 186.748 38.7149 187.105 38.5723V40.069H189.67V39.3563L190.169 40.069H200.788C201.216 39.9265 201.644 39.8552 202 39.6414Z" fill="white"/>
<path d="M200.788 38.2872H198.864V39.0712H200.717C201.501 39.0712 202 38.5723 202 37.8596C202 37.1469 201.572 36.7906 200.86 36.7906H200.004C199.791 36.7906 199.648 36.648 199.648 36.4342C199.648 36.2204 199.791 36.0779 200.004 36.0779H201.644L202 35.2939H200.076C199.292 35.2939 198.793 35.7928 198.793 36.4342C198.793 37.1469 199.22 37.5033 199.933 37.5033H200.788C201.002 37.5033 201.145 37.6458 201.145 37.8596C201.216 38.1447 201.073 38.2872 200.788 38.2872ZM197.296 38.2872H195.372V39.0712H197.225C198.009 39.0712 198.508 38.5723 198.508 37.8596C198.508 37.1469 198.08 36.7906 197.367 36.7906H196.512C196.298 36.7906 196.156 36.648 196.156 36.4342C196.156 36.2204 196.298 36.0779 196.512 36.0779H198.151L198.508 35.2939H196.584C195.8 35.2939 195.301 35.7928 195.301 36.4342C195.301 37.1469 195.728 37.5033 196.441 37.5033H197.296C197.51 37.5033 197.653 37.6458 197.653 37.8596C197.724 38.1447 197.51 38.2872 197.296 38.2872ZM194.802 36.0066V35.2226H191.808V38.9999H194.802V38.216H192.664V37.432H194.731V36.648H192.664V35.9353H194.802V36.0066ZM189.955 36.0066C190.312 36.0066 190.454 36.2204 190.454 36.4342C190.454 36.648 190.312 36.8618 189.955 36.8618H188.886V35.9353L189.955 36.0066ZM188.886 37.6458H189.314L190.454 38.9999H191.523L190.241 37.5745C190.882 37.432 191.238 37.0044 191.238 36.4342C191.238 35.7215 190.739 35.2226 189.955 35.2226H187.96V38.9999H188.815L188.886 37.6458ZM186.606 36.5055C186.606 36.7906 186.463 37.0044 186.107 37.0044H184.967V36.0066H186.036C186.392 36.0066 186.606 36.2204 186.606 36.5055ZM184.111 35.2226V38.9999H184.967V37.7171H186.107C186.891 37.7171 187.461 37.2182 187.461 36.4342C187.461 35.7215 186.962 35.1514 186.178 35.1514L184.111 35.2226ZM182.829 38.9999H183.898L182.401 37.0756L183.898 35.2226H182.829L181.902 36.4342L180.976 35.2226H179.906L181.403 37.0756L179.906 38.9287H180.976L181.902 37.7171L182.829 38.9999ZM179.621 36.0066V35.2226H176.628V38.9999H179.621V38.216H177.483V37.432H179.55V36.648H177.483V35.9353H179.621V36.0066ZM196.94 29.3073L198.437 31.5879H199.506V27.8106H198.65V30.305L198.437 29.9487L197.082 27.8106H195.942V31.5879H196.797V29.0222L196.94 29.3073ZM193.234 29.236L193.519 28.452L193.804 29.236L194.16 30.0912H192.878L193.234 29.236ZM194.731 31.5879H195.657L194.018 27.8106H192.878L191.238 31.5879H192.165L192.521 30.8039H194.374L194.731 31.5879ZM190.739 31.5879L191.096 30.8039H190.882C190.241 30.8039 189.884 30.3763 189.884 29.7349V29.6636C189.884 29.0222 190.241 28.5946 190.882 28.5946H191.808V27.8106H190.811C189.67 27.8106 189.029 28.5946 189.029 29.6636V29.7349C189.029 30.8752 189.67 31.5879 190.739 31.5879ZM187.532 31.5879H188.388V27.8819H187.532V31.5879ZM185.679 28.5946C186.036 28.5946 186.178 28.8084 186.178 29.0222C186.178 29.236 186.036 29.4498 185.679 29.4498H184.61V28.5233L185.679 28.5946ZM184.61 30.2338H185.038L186.178 31.5879H187.247L185.964 30.1625C186.606 30.02 186.962 29.5923 186.962 29.0222C186.962 28.3095 186.463 27.8106 185.679 27.8106H183.684V31.5879H184.539L184.61 30.2338ZM183.042 28.5946V27.8106H180.049V31.5879H183.042V30.8039H180.904V30.02H182.971V29.236H180.904V28.5233H183.042V28.5946ZM176.557 31.5879H177.341L178.41 28.5233V31.5879H179.265V27.8106H177.84L176.984 30.3763L176.129 27.8106H174.704V31.5879H175.559V28.5233L176.557 31.5879ZM171.924 29.236L172.209 28.452L172.494 29.236L172.851 30.0912H171.568L171.924 29.236ZM173.421 31.5879H174.347L172.708 27.8106H171.639L170 31.5879H170.927L171.283 30.8039H173.136L173.421 31.5879Z" fill="#818181"/>
<path d="M387.06 43.317C392.256 43.3427 397 39.0115 397 33.7424C397 27.9808 392.256 23.9983 387.06 24H382.588C377.329 23.9983 373 27.9817 373 33.7424C373 39.0127 377.329 43.3427 382.588 43.317H387.06Z" fill="#ACACAC"/>
<path d="M384.583 38.5617V28.1722C386.602 28.9733 388.035 30.9951 388.039 33.3666C388.035 35.7385 386.602 37.7592 384.583 38.5617ZM377.278 33.3666C377.283 30.9965 378.714 28.9759 380.732 28.1724V38.5596C378.714 37.7568 377.283 35.7373 377.278 33.3666ZM382.658 24.5854C377.97 24.587 374.172 28.5169 374.171 33.3666C374.172 38.2158 377.97 42.145 382.658 42.1464C387.347 42.145 391.146 38.2158 391.146 33.3666C391.146 28.5169 387.347 24.587 382.658 24.5854Z" fill="#D6D6D6"/>
<path d="M337.104 45.474C339.874 45.474 342.292 44.6221 342.849 41.8831C343.404 39.144 347.024 21.5274 347.024 21.5274H301.886C299.114 21.5274 296.687 22.5143 296.141 25.1168C295.594 27.7186 291.977 45.4703 291.977 45.4703L337.104 45.474Z" fill="#D6D6D6"/>
<path d="M337.104 45.6725V45.4741V45.2741C339.85 45.2622 342.121 44.4521 342.653 41.8421C343.171 39.2918 346.344 23.8421 346.78 21.7267H301.886C299.147 21.7349 296.855 22.6852 296.336 25.1572C296.063 26.4573 295.021 31.5453 294.048 36.3088C293.209 40.4219 292.421 44.2873 292.22 45.2704L337.104 45.2741V45.4741L337.104 45.6725L291.732 45.668L291.781 45.4293C291.781 45.4293 295.397 27.6784 295.945 25.0751C296.519 22.3443 299.081 21.3179 301.886 21.3268H347.268L347.219 21.567C347.219 21.576 346.315 25.9702 345.34 30.7181C344.365 35.4644 343.322 40.5532 343.045 41.9219C342.468 44.7736 339.931 45.6732 337.158 45.6732C337.141 45.6732 337.122 45.6732 337.104 45.6725Z" fill="white"/>
<path d="M296.84 36.82L297.215 34.906L297.596 32.886L297.922 30.8519L298.227 28.94L298.254 28.8177H299.605C299.591 28.8789 299.591 28.9162 299.579 28.94C299.531 29.1713 299.434 29.683 299.299 30.4729C299.226 30.8996 299.128 31.3867 299.019 31.9357L298.995 32.1073H299.105L300.869 32.1296L302.587 32.1073H302.722L302.746 31.9357C302.819 31.4605 302.892 30.9608 302.989 30.4244C303.185 29.3533 303.197 29.2794 303.258 28.8185H304.632C304.61 28.9042 304.61 28.9042 304.596 28.9408C304.572 29.0624 304.452 29.6957 304.243 30.8519L303.867 32.886L303.525 34.9067C303.331 36.0525 303.233 36.6858 303.211 36.82C303.211 36.8663 303.211 36.8663 303.197 36.9401H301.821L301.847 36.82C301.88 36.6731 301.942 36.3203 302.038 35.7601C302.075 35.5505 302.149 35.1999 302.246 34.6628L302.441 33.5909C302.502 33.2634 302.539 33.0665 302.55 33.018C302.55 32.9934 302.563 32.9591 302.574 32.8972H302.417C302.186 32.886 301.357 32.886 300.566 32.886C299.775 32.886 299.249 32.886 299.006 32.8964H298.849C298.824 33.1299 298.812 33.1762 298.739 33.5909C298.678 33.9072 298.619 34.2727 298.557 34.6621C298.46 35.2364 298.398 35.6004 298.374 35.7593C298.277 36.3441 298.215 36.6955 298.191 36.82C298.191 36.8417 298.191 36.8916 298.18 36.9394H296.815L296.84 36.82Z" fill="white"/>
<path d="M304.426 36.8251L304.682 35.5205L304.962 34.0547L305.194 32.6345C305.312 31.9117 305.381 31.4589 305.403 31.2724C305.403 31.2486 305.403 31.2135 305.415 31.1561H306.613C306.603 31.2135 306.59 31.2486 306.58 31.2724C306.533 31.4589 306.452 31.9117 306.31 32.6345L306.043 34.0547L305.801 35.5205C305.694 36.2068 305.623 36.6491 305.6 36.8251C305.6 36.8475 305.6 36.8945 305.591 36.94H304.39L304.426 36.8251ZM305.65 29.653C305.65 29.0608 305.94 28.7102 306.452 28.7102C306.801 28.7102 306.976 28.8743 306.976 29.2114C306.976 29.794 306.672 30.1543 306.172 30.1543C305.881 30.1543 305.706 30.0364 305.658 29.8171C305.65 29.7575 305.65 29.7112 305.65 29.653Z" fill="white"/>
<path d="M306.231 39.3954C306.287 39.1403 306.427 38.419 306.649 37.2091L307.032 35.1242L307.37 33.1229C307.534 32.145 307.628 31.5281 307.663 31.2723C307.663 31.2253 307.663 31.2253 307.673 31.1551H308.711L308.685 31.2723L308.629 31.596L308.606 31.725C309.165 31.2365 309.735 31.0283 310.502 31.0283C311.806 31.0283 312.505 31.737 312.505 33.0647C312.505 33.798 312.307 34.6245 311.968 35.3585C311.419 36.5102 310.514 37.0927 309.292 37.0927C308.522 37.0927 308.173 36.8824 307.895 36.2782L307.872 36.4162L307.604 38.1393C307.511 38.7219 307.438 39.1403 307.417 39.385C307.417 39.3954 307.417 39.4424 307.407 39.5245H306.195C306.217 39.4424 306.217 39.4424 306.231 39.3954ZM308.556 32.5739L308.173 34.7401C308.149 34.8915 308.127 35.0302 308.127 35.1839C308.127 35.9395 308.512 36.314 309.267 36.314C309.768 36.314 310.176 36.1365 310.479 35.7993C310.956 35.2533 311.282 34.1829 311.282 33.205C311.282 32.2614 310.863 31.7944 309.955 31.7944C309.407 31.7944 308.953 32.0055 308.591 32.4001L308.556 32.5739Z" fill="white"/>
<path d="M315.157 37.068C313.588 37.068 312.817 36.3952 312.817 34.9965C312.817 34.2275 313.016 33.3667 313.354 32.6461C313.866 31.563 314.822 31.0282 316.229 31.0282C317.567 31.0282 318.233 31.5384 318.233 32.5521C318.233 32.8423 318.162 33.2981 318.046 33.8202L317.918 33.8083C317.709 33.7978 317.055 33.7978 315.961 33.7978C315.03 33.7978 314.461 33.7978 314.24 33.8083L314.121 33.8202C314.017 34.3439 314.007 34.4737 314.007 34.8459C314.007 35.7783 314.541 36.2781 315.543 36.2781C316.196 36.2781 316.823 36.1505 317.523 35.8469L317.347 36.7778C316.672 36.9643 315.879 37.068 315.157 37.068ZM314.401 33.1452C314.53 33.1578 314.961 33.1578 315.683 33.1578H315.869C316.392 33.1578 316.753 33.1578 316.962 33.1452H317.068L317.09 32.9937C317.113 32.855 317.126 32.7259 317.126 32.6111C317.126 32.0397 316.741 31.7615 315.996 31.7615C315.052 31.7615 314.517 32.1792 314.273 33.1452H314.401Z" fill="white"/>
<path d="M318.405 36.8251L318.662 35.5205L318.941 34.0547L319.174 32.6345C319.29 31.9117 319.36 31.4589 319.384 31.2724C319.384 31.2486 319.396 31.2135 319.396 31.1561H320.442L320.42 31.2724L320.283 32.0057L320.245 32.1675C320.442 31.855 320.513 31.7715 320.663 31.5962C320.992 31.2254 321.422 31.027 321.875 31.027C322.109 31.027 322.307 31.074 322.526 31.1784L322.376 32.0169C322.12 31.9356 321.91 31.902 321.689 31.902C320.992 31.902 320.374 32.5301 320.128 33.4946C320.037 33.8563 319.953 34.2755 319.875 34.7649C319.641 36.2194 319.616 36.3351 319.57 36.94H318.383L318.405 36.8251Z" fill="white"/>
<path d="M326.714 32.0629C326.225 31.8891 325.702 31.7944 325.223 31.7944C324.653 31.7944 324.22 31.9354 323.931 32.2144C323.454 32.6686 323.082 33.798 323.082 34.8102C323.082 35.8008 323.514 36.2782 324.398 36.2782C324.922 36.2782 325.597 36.1148 326.061 35.8821L325.898 36.7653C325.305 36.9644 324.677 37.0681 324.037 37.0681C323.127 37.0681 322.628 36.8578 322.243 36.3356C321.987 35.9634 321.882 35.5792 321.882 34.9624C321.882 34.159 322.08 33.3213 322.453 32.5866C322.617 32.2487 322.848 31.9466 323.14 31.69C323.652 31.2253 324.304 31.0268 325.364 31.0268C325.736 31.0268 326.13 31.0507 326.76 31.1081L326.876 31.1193L326.714 32.0629Z" fill="white"/>
<path d="M328.46 37.068C327.283 37.068 326.726 36.5787 326.726 35.556C326.726 34.0418 327.796 33.1705 329.647 33.1705C329.937 33.1705 330.509 33.1921 330.892 33.216L330.917 33.0885C330.997 32.6685 330.997 32.6342 330.997 32.494C330.997 32.0285 330.613 31.7943 329.821 31.7943C329.218 31.7943 328.636 31.889 327.877 32.0994L328.111 31.1431C328.157 31.155 328.192 31.155 328.215 31.155C328.4 31.155 328.693 31.1319 329.1 31.0849C329.449 31.0506 329.798 31.0282 330.123 31.0282C331.508 31.0282 332.127 31.3892 332.127 32.1919C332.127 32.4 332.092 32.6342 331.998 33.1452L331.812 34.2051C331.605 35.3352 331.488 36.2318 331.488 36.7547C331.488 36.801 331.488 36.8703 331.497 36.9397H330.45V36.8479C330.45 36.6831 330.498 36.3228 330.543 35.9849C330.02 36.7547 329.403 37.068 328.46 37.068ZM330.648 33.8799C330.298 33.8456 330.123 33.8456 329.88 33.8456C329.169 33.8456 328.751 33.9366 328.425 34.1939C328.077 34.4617 327.866 34.9026 327.866 35.3919C327.866 35.976 328.215 36.2878 328.854 36.2878C329.496 36.2878 330.066 35.9394 330.347 35.3703C330.521 34.9965 330.648 34.5423 330.764 33.8903L330.648 33.8799Z" fill="white"/>
<path d="M332.5 36.8251L332.753 35.5205L333.036 34.0547L333.269 32.6345C333.384 31.9117 333.454 31.4589 333.475 31.2724C333.475 31.2486 333.488 31.2135 333.488 31.1561H334.537L334.511 31.2724L334.372 32.0057L334.338 32.1675C334.537 31.855 334.606 31.7715 334.757 31.5962C335.084 31.2254 335.513 31.027 335.968 31.027C336.2 31.027 336.398 31.074 336.62 31.1784L336.468 32.0169C336.212 31.9356 336.003 31.902 335.78 31.902C335.084 31.902 334.467 32.5301 334.223 33.4946C334.13 33.8563 334.048 34.2755 333.966 34.7649C333.734 36.2194 333.71 36.3351 333.662 36.94H332.476L332.5 36.8251Z" fill="white"/>
<path d="M337.978 37.068C336.616 37.068 335.976 36.4399 335.976 35.0793C335.976 34.2872 336.173 33.448 336.546 32.7259C337.104 31.61 338.072 31.0282 339.35 31.0282C339.713 31.0282 340.073 31.0618 340.363 31.1319C340.458 31.1662 340.517 31.1781 340.691 31.2363L340.713 31.0961C340.76 30.8634 340.818 30.4926 340.899 29.9794C340.991 29.4207 341.051 29.0135 341.085 28.7554L341.098 28.6629H342.285L342.262 28.7449C342.168 29.2119 342.03 29.9101 341.855 30.8634C341.539 32.5648 341.424 33.2048 341.249 34.2626C341.038 35.556 340.946 36.3467 340.946 36.8576V36.9397H339.863C339.874 36.7547 339.874 36.6958 339.91 36.4519C339.945 36.2639 339.958 36.1967 339.981 35.9976C339.517 36.7898 338.98 37.068 337.978 37.068ZM339.409 31.7846C338.897 31.7846 338.48 31.9233 338.175 32.1919C337.594 32.7036 337.198 33.8083 337.198 34.9503C337.198 35.87 337.571 36.2878 338.384 36.2878C338.991 36.2878 339.561 35.9394 339.816 35.4023C339.934 35.1487 340.026 34.8332 340.108 34.4737C340.248 33.7628 340.435 32.7498 340.539 32.1322L340.551 32.0054C340.133 31.8547 339.804 31.7846 339.409 31.7846Z" fill="white"/>
<path d="M228.86 28.7357C229.354 28.5697 229.882 28.4806 230.433 28.4806C232.832 28.4806 234.834 30.1895 235.294 32.4617L238.695 31.7652C237.914 27.906 234.512 25 230.433 25C229.497 25 228.599 25.1526 227.759 25.4344L228.86 28.7357Z" fill="#D6D6D6"/>
<path d="M224.846 39.7888L227.146 37.1812C226.119 36.2688 225.472 34.9379 225.472 33.4548C225.472 31.973 226.119 30.6424 227.144 29.7309L224.844 27.1233C223.1 28.6724 222 30.9351 222 33.4548C222 35.9764 223.101 38.2398 224.846 39.7888Z" fill="#D6D6D6"/>
<path d="M235.292 34.4534C234.832 36.7235 232.831 38.4295 230.433 38.4295C229.882 38.4295 229.352 38.3403 228.858 38.1735L227.756 41.4754C228.597 41.7575 229.497 41.9094 230.433 41.9094C234.508 41.9094 237.91 39.0091 238.693 35.1522L235.292 34.4534Z" fill="#D6D6D6"/>
<path d="M248.465 36.2621C248.464 36.2637 248.463 36.2643 248.462 36.2659L248.365 36.1997C248.087 36.6535 247.653 37.0204 247.104 37.2583C246.06 37.7137 245.093 37.5968 244.399 36.986L244.335 37.0828L244.334 37.0812L243.149 38.8579C243.443 39.0627 243.759 39.2366 244.09 39.3751C245.398 39.9197 246.737 39.8945 248.056 39.3194C249.009 38.9057 249.758 38.2732 250.27 37.472L248.465 36.2621ZM244.767 31.879C243.667 32.3538 243.098 33.3901 243.215 34.6061L247.883 32.5911C247.081 31.6446 246.036 31.3316 244.767 31.879ZM241.669 37.2911C241.557 37.1105 241.406 36.82 241.314 36.6073C240.776 35.3535 240.75 34.0561 241.205 32.8108C241.705 31.444 242.661 30.3984 243.894 29.866C245.447 29.1962 247.163 29.3287 248.65 30.2134C249.595 30.7564 250.264 31.5959 250.773 32.7825C250.838 32.9341 250.894 33.0971 250.95 33.2347L241.669 37.2911Z" fill="#D6D6D6"/>
<path d="M254.195 27.2492V37.1274L255.726 37.7494L254.856 39.785L253.166 39.0803C252.786 38.9153 252.528 38.6631 252.333 38.378C252.146 38.0879 252.006 37.6898 252.006 37.1542V27.2492H254.195Z" fill="#D6D6D6"/>
<path d="M258.162 34.6105C258.163 33.7698 258.534 33.0153 259.12 32.5026L257.548 30.7459C256.483 31.6911 255.812 33.0704 255.81 34.6083C255.808 36.1478 256.478 37.5286 257.544 38.4758L259.113 36.7169C258.53 36.2029 258.162 35.4497 258.162 34.6105Z" fill="#D6D6D6"/>
<path d="M260.954 37.4139C260.644 37.4132 260.347 37.3616 260.068 37.2687L259.318 39.5069C259.831 39.6795 260.381 39.7731 260.952 39.774C263.439 39.776 265.517 38.0062 265.998 35.6527L263.691 35.1811C263.43 36.4562 262.303 37.4155 260.954 37.4139Z" fill="#D6D6D6"/>
<path d="M260.96 29.4522C260.39 29.4516 259.842 29.5445 259.328 29.7156L260.073 31.955C260.351 31.8627 260.649 31.8114 260.958 31.8114C262.311 31.813 263.438 32.777 263.693 34.0563L266 33.5865C265.526 31.2302 263.451 29.4535 260.96 29.4522Z" fill="#D6D6D6"/>
</svg>
