<svg width="60" height="60" viewBox="0 0 60 60" fill="none" xmlns="http://www.w3.org/2000/svg">
<path d="M30 37.5C31.9891 37.5 33.8968 36.7098 35.3033 35.3033C36.7098 33.8968 37.5 31.9891 37.5 30C37.5 28.0109 36.7098 26.1032 35.3033 24.6967C33.8968 23.2902 31.9891 22.5 30 22.5C28.0109 22.5 26.1032 23.2902 24.6967 24.6967C23.2902 26.1032 22.5 28.0109 22.5 30C22.5 31.9891 23.2902 33.8968 24.6967 35.3033C26.1032 36.7098 28.0109 37.5 30 37.5Z" fill="#971F3A"/>
<path d="M0 15C0 14.0054 0.395088 13.0516 1.09835 12.3483C1.80161 11.6451 2.75544 11.25 3.75 11.25H56.25C57.2446 11.25 58.1984 11.6451 58.9016 12.3483C59.6049 13.0516 60 14.0054 60 15V45C60 45.9946 59.6049 46.9484 58.9016 47.6516C58.1984 48.3549 57.2446 48.75 56.25 48.75H3.75C2.75544 48.75 1.80161 48.3549 1.09835 47.6516C0.395088 46.9484 0 45.9946 0 45V15ZM11.25 15C11.25 16.9891 10.4598 18.8968 9.0533 20.3033C7.64678 21.7098 5.73912 22.5 3.75 22.5V37.5C5.73912 37.5 7.64678 38.2902 9.0533 39.6967C10.4598 41.1032 11.25 43.0109 11.25 45H48.75C48.75 43.0109 49.5402 41.1032 50.9467 39.6967C52.3532 38.2902 54.2609 37.5 56.25 37.5V22.5C54.2609 22.5 52.3532 21.7098 50.9467 20.3033C49.5402 18.8968 48.75 16.9891 48.75 15H11.25Z" fill="#971F3A"/>
</svg>
