<svg width="60" height="60" viewBox="0 0 60 60" fill="none" xmlns="http://www.w3.org/2000/svg">
<g clip-path="url(#clip0)">
<path d="M31.9313 3.82125C31.2886 3.7738 30.6444 3.75004 30 3.75V0C30.737 0.000359353 31.4738 0.027878 32.2087 0.0825L31.9313 3.82125ZM39.4462 5.50875C38.2442 5.04489 37.0096 4.67013 35.7525 4.3875L36.5738 0.7275C38.01 1.05 39.4237 1.4775 40.7962 2.01L39.4462 5.50875ZM44.5837 8.17125C44.0476 7.81368 43.4985 7.47596 42.9375 7.15875L44.7862 3.89625C46.0684 4.62276 47.2954 5.44246 48.4575 6.34875L46.1513 9.3075C45.6428 8.91086 45.12 8.53311 44.5837 8.175V8.17125ZM51.4612 14.8837C50.7195 13.8299 49.901 12.8322 49.0125 11.8988L51.7275 9.31125C52.74 10.38 53.6775 11.5237 54.5288 12.7237L51.4612 14.8837ZM54.2512 19.9538C54.0051 19.3592 53.7374 18.7738 53.4488 18.1988L56.7975 16.5112C57.4597 17.8278 58.0238 19.1915 58.485 20.5913L54.9225 21.765C54.721 21.1532 54.4971 20.5491 54.2512 19.9538ZM56.2387 29.355C56.2084 28.0663 56.0831 26.7815 55.8638 25.5112L59.5575 24.8737C59.8088 26.3212 59.955 27.7913 59.9925 29.2612L56.2425 29.355H56.2387ZM55.7475 35.1225C55.8713 34.485 55.9725 33.8512 56.0512 33.21L59.775 33.6712C59.5949 35.1343 59.3066 36.582 58.9125 38.0025L55.2975 37.0012C55.47 36.3825 55.62 35.7563 55.7475 35.1225ZM52.1775 44.0438C52.8675 42.9562 53.475 41.8162 54 40.6387L57.4275 42.1575C56.8275 43.5075 56.1337 44.805 55.3462 46.05L52.1775 44.0438ZM48.5625 48.5625C49.02 48.105 49.4587 47.6325 49.875 47.145L52.7175 49.5938C52.2361 50.1519 51.7346 50.6922 51.2137 51.2137L48.5625 48.5625Z" fill="#971F3A"/>
<path d="M30 3.75C25.6833 3.75031 21.4333 4.81518 17.6264 6.85027C13.8196 8.88537 10.5733 11.8279 8.17524 15.4172C5.77716 19.0065 4.30125 23.1318 3.87826 27.4277C3.45526 31.7237 4.09822 36.0576 5.75019 40.0457C7.40216 44.0338 10.0122 47.5529 13.349 50.2914C16.6858 53.0299 20.6465 54.9033 24.8803 55.7455C29.114 56.5877 33.4901 56.3729 37.621 55.12C41.7519 53.867 45.51 51.6147 48.5625 48.5625L51.2138 51.2137C47.7253 54.7042 43.4297 57.2802 38.7077 58.7137C33.9856 60.1472 28.9829 60.3939 24.1428 59.4318C19.3026 58.4697 14.7745 56.3287 10.9596 53.1983C7.14468 50.068 4.16078 46.045 2.27228 41.4858C0.383777 36.9267 -0.351025 31.972 0.132979 27.061C0.616983 22.15 2.30485 17.4341 5.04703 13.3313C7.78921 9.22851 11.501 5.86542 15.8536 3.54001C20.2062 1.21461 25.0652 -0.00130775 30 1.05547e-06V3.75Z" fill="#971F3A"/>
<path d="M28.125 11.25C28.6223 11.25 29.0992 11.4475 29.4508 11.7992C29.8025 12.1508 30 12.6277 30 13.125V32.6625L42.18 39.6225C42.5992 39.8754 42.9029 40.2822 43.0261 40.7561C43.1493 41.2299 43.0823 41.7332 42.8394 42.1582C42.5965 42.5833 42.197 42.8966 41.7262 43.031C41.2554 43.1654 40.7507 43.1103 40.32 42.8775L27.195 35.3775C26.908 35.2136 26.6695 34.9767 26.5035 34.6909C26.3376 34.4051 26.2501 34.0805 26.25 33.75V13.125C26.25 12.6277 26.4475 12.1508 26.7992 11.7992C27.1508 11.4475 27.6277 11.25 28.125 11.25Z" fill="#971F3A"/>
</g>
<defs>
<clipPath id="clip0">
<rect width="60" height="60" fill="white"/>
</clipPath>
</defs>
</svg>
