<svg width="60" height="60" viewBox="0 0 60 60" fill="none" xmlns="http://www.w3.org/2000/svg">
<g clip-path="url(#clip0)">
<path d="M30 56.25C23.0381 56.25 16.3613 53.4844 11.4384 48.5616C6.51562 43.6387 3.75 36.9619 3.75 30C3.75 23.0381 6.51562 16.3613 11.4384 11.4384C16.3613 6.51562 23.0381 3.75 30 3.75C36.9619 3.75 43.6387 6.51562 48.5616 11.4384C53.4844 16.3613 56.25 23.0381 56.25 30C56.25 36.9619 53.4844 43.6387 48.5616 48.5616C43.6387 53.4844 36.9619 56.25 30 56.25ZM30 60C37.9565 60 45.5871 56.8393 51.2132 51.2132C56.8393 45.5871 60 37.9565 60 30C60 22.0435 56.8393 14.4129 51.2132 8.7868C45.5871 3.16071 37.9565 0 30 0C22.0435 0 14.4129 3.16071 8.7868 8.7868C3.16071 14.4129 0 22.0435 0 30C0 37.9565 3.16071 45.5871 8.7868 51.2132C14.4129 56.8393 22.0435 60 30 60Z" fill="#971F3A"/>
<path d="M46.2413 35.625C46.5704 36.1951 46.7437 36.8417 46.7437 37.5C46.7437 38.1583 46.5704 38.8049 46.2413 39.375C44.5959 42.2264 42.2286 44.594 39.3774 46.2398C36.5263 47.8856 33.292 48.7513 30 48.75C26.7086 48.7507 23.4751 47.8846 20.6247 46.2389C17.7743 44.5931 15.4075 42.2258 13.7625 39.375C13.4335 38.8052 13.2603 38.1589 13.2601 37.501C13.2599 36.843 13.4329 36.1966 13.7615 35.6267C14.0902 35.0567 14.5631 34.5833 15.1326 34.2538C15.7021 33.9244 16.3483 33.7507 17.0063 33.75H42.9938C43.652 33.75 44.2986 33.9233 44.8687 34.2524C45.4388 34.5816 45.9121 35.0549 46.2413 35.625ZM26.25 24.375C26.25 27.48 24.57 24.375 22.5 24.375C20.43 24.375 18.75 27.48 18.75 24.375C18.75 21.27 20.43 18.75 22.5 18.75C24.57 18.75 26.25 21.27 26.25 24.375ZM41.25 24.375C41.25 27.48 39.57 24.375 37.5 24.375C35.43 24.375 33.75 27.48 33.75 24.375C33.75 21.27 35.43 18.75 37.5 18.75C39.57 18.75 41.25 21.27 41.25 24.375Z" fill="#971F3A"/>
</g>
<defs>
<clipPath id="clip0">
<rect width="60" height="60" fill="white"/>
</clipPath>
</defs>
</svg>
