<svg width="16" height="16" viewBox="0 0 16 16" fill="none" xmlns="http://www.w3.org/2000/svg">
<g clip-path="url(#clip0)">
<path d="M16 8.04805C16 3.60205 12.418 -0.00195312 7.99999 -0.00195312C3.57999 -0.000953125 -0.00201416 3.60205 -0.00201416 8.04905C-0.00201416 12.066 2.92399 15.396 6.74799 16V10.375H4.71799V8.04905H6.74999V6.27405C6.74999 4.25705 7.94499 3.14305 9.77199 3.14305C10.648 3.14305 11.563 3.30005 11.563 3.30005V5.28005H10.554C9.56099 5.28005 9.25099 5.90105 9.25099 6.53805V8.04805H11.469L11.115 10.374H9.24999V15.999C13.074 15.395 16 12.065 16 8.04805Z" fill="#971F3A"/>
</g>
<defs>
<clipPath id="clip0">
<rect width="16" height="16" fill="white"/>
</clipPath>
</defs>
</svg>
