<svg width="60" height="60" viewBox="0 0 60 60" fill="none" xmlns="http://www.w3.org/2000/svg">
<path d="M44.6927 32.7073C42.7756 36.5927 40.1781 40.4634 37.522 43.939C35.0023 47.2157 32.3082 50.3544 29.4512 53.3415C26.5942 50.3544 23.9001 47.2157 21.3805 43.939C18.7244 40.4634 16.1268 36.5927 14.2098 32.7073C12.2707 28.7817 11.1585 25.1049 11.1585 21.9512C11.1585 17.0997 13.0858 12.4469 16.5163 9.01634C19.9469 5.5858 24.5997 3.65854 29.4512 3.65854C34.3027 3.65854 38.9556 5.5858 42.3861 9.01634C45.8166 12.4469 47.7439 17.0997 47.7439 21.9512C47.7439 25.1049 46.6281 28.7817 44.6927 32.7073ZM29.4512 58.5366C29.4512 58.5366 51.4024 37.7341 51.4024 21.9512C51.4024 16.1294 49.0897 10.546 44.9731 6.42936C40.8564 2.31271 35.273 0 29.4512 0C23.6294 0 18.046 2.31271 13.9294 6.42936C9.81271 10.546 7.5 16.1294 7.5 21.9512C7.5 37.7341 29.4512 58.5366 29.4512 58.5366Z" fill="#971F3A"/>
<path d="M30 30C28.0109 30 26.1032 29.2098 24.6967 27.8033C23.2902 26.3968 22.5 24.4891 22.5 22.5C22.5 20.5109 23.2902 18.6032 24.6967 17.1967C26.1032 15.7902 28.0109 15 30 15C31.9891 15 33.8968 15.7902 35.3033 17.1967C36.7098 18.6032 37.5 20.5109 37.5 22.5C37.5 24.4891 36.7098 26.3968 35.3033 27.8033C33.8968 29.2098 31.9891 30 30 30ZM30 33.75C32.9837 33.75 35.8452 32.5647 37.955 30.455C40.0647 28.3452 41.25 25.4837 41.25 22.5C41.25 19.5163 40.0647 16.6548 37.955 14.545C35.8452 12.4353 32.9837 11.25 30 11.25C27.0163 11.25 24.1548 12.4353 22.045 14.545C19.9353 16.6548 18.75 19.5163 18.75 22.5C18.75 25.4837 19.9353 28.3452 22.045 30.455C24.1548 32.5647 27.0163 33.75 30 33.75Z" fill="#971F3A"/>
</svg>
