<svg width="97" height="72" viewBox="0 0 97 72" fill="none" xmlns="http://www.w3.org/2000/svg">
<path fill-rule="evenodd" clip-rule="evenodd" d="M13.5122 60.5792H33.3331C32.4384 61.8549 31.5285 63.0079 30.0389 63.7444C26.0792 65.6989 21.3584 65.6725 17.4315 63.7203C15.9066 62.9621 14.4523 61.9223 13.5122 60.5816V60.5792ZM65.3203 0.638874H68.6574C77.6353 0.857915 86.1267 3.03389 89.8822 11.4489C92.4909 17.2956 92.017 27.1332 88.6522 32.2458C87.5457 33.9259 86.6963 34.8093 85.2168 36.1332C84.2565 36.9925 81.8823 38.4704 80.4809 38.7809V39.3538C81.9705 39.7341 84.68 42.4565 85.6378 43.6071C90.9055 49.94 84.6674 49.1048 97 49.1048V51.6851H89.7915C89.8948 52.8598 90.7745 55.4955 90.9937 57.994H96.7001V60.5743H91.2937C91.2937 63.6505 91.5936 65.6027 91.5936 68.6043H85.2874V64.3029C85.2874 62.5577 84.9875 62.2111 84.9875 60.5743H61.5623V68.6043H56.7583V60.5743H42.3438C41.512 60.5743 40.9525 61.8597 40.4585 62.5024C39.1151 64.2595 36.8416 66.3922 35.0546 67.6655C23.5714 75.8543 8.42087 68.0073 6.60613 60.5719H0V57.9916H5.70633C5.67608 56.6942 5.40639 56.8506 5.40639 55.4112C5.40639 53.3315 5.70633 53.021 5.70633 51.6827H0V49.1024C8.4007 49.1024 6.01886 49.5669 7.86132 46.859C9.4845 44.4736 11.269 42.8994 13.7516 41.2987C16.2469 39.6884 22.0994 37.1249 25.2273 37.0575C25.5953 38.5643 26.427 41.135 26.427 42.7935C22.9085 43.0727 15.9697 46.031 13.8147 49.1024H39.3419C41.2625 45.6386 42.9714 39.9821 44.5744 36.0297C48.6777 25.9105 52.3097 13.2494 56.786 2.66561C57.4237 1.15639 57.6732 1.04566 59.745 0.901242C61.5774 0.776076 63.4501 0.672573 65.3228 0.631653L65.3203 0.638874ZM61.5623 51.6875H82.583C83.702 51.6875 83.8054 53.423 84.0322 54.3208C84.2868 55.3294 84.6623 56.9228 84.6875 57.9988H61.5623V51.6899V51.6875ZM46.5479 51.6875H56.7583V57.9964H43.546L45.7766 53.2449C46.2581 52.4843 46.3059 52.6816 46.5479 51.6875ZM35.1352 57.9964H12.0125C11.8487 56.1285 11.1833 53.9333 12.3125 51.6875H38.1396C37.6028 52.7563 37.1945 53.7865 36.6374 54.8432C36.1384 55.7915 35.4024 56.906 35.1352 57.9988V57.9964ZM61.5623 41.3613C69.3757 41.3613 77.9277 41.7873 81.9831 49.1048H61.5623V41.3613V41.3613ZM56.7583 41.9342V49.1048H48.35C50.6714 44.9165 52.9852 43.6648 56.7583 41.9342V41.9342ZM48.65 39.6403L56.539 17.3486C56.5642 17.298 56.6272 17.2042 56.6474 17.1657C56.6701 17.1271 56.7154 17.0405 56.7583 16.9851V35.9141C53.6783 36.1597 50.7596 38.2947 48.65 39.6427V39.6403ZM70.8729 34.7636H61.5623V6.6589C71.876 6.6589 85.2874 5.44575 85.2874 19.5655C85.2874 24.4975 84.9497 28.2068 81.4664 31.4033C79.2559 33.4301 75.1022 34.766 70.8729 34.766V34.7636Z" fill="white"/>
<path fill-rule="evenodd" clip-rule="evenodd" d="M73.4062 13.1158L75.0772 18.0598L80.5164 18.0478L76.1106 21.0951L77.8019 26.032L73.4062 22.9702L69.0105 26.032L70.7017 21.0951L66.2934 18.0478L71.7351 18.0598L73.4062 13.1158Z" fill="white"/>
</svg>
