<svg width="83" height="63" viewBox="0 0 83 63" fill="none" xmlns="http://www.w3.org/2000/svg">
<g clip-path="url(#clip0)">
<path fill-rule="evenodd" clip-rule="evenodd" d="M11.5639 53.5509H28.5241C27.7585 54.6907 26.9799 55.7207 25.7053 56.3788C22.3172 58.1249 18.2777 58.1013 14.9176 56.3573C13.6128 55.6799 12.3684 54.7509 11.5639 53.5531V53.5509ZM55.8946 0.000591957H58.75C66.4321 0.196282 73.698 2.14028 76.9115 9.65824C79.1436 14.8817 78.7382 23.6705 75.859 28.2381C74.9122 29.7391 74.1854 30.5283 72.9194 31.711C72.0977 32.4787 70.0661 33.7991 68.867 34.0765V34.5883C70.1416 34.9281 72.4601 37.3603 73.2796 38.3882C77.7871 44.046 72.4493 43.2998 83.0019 43.2998V45.6051H76.8338C76.9222 46.6545 77.6749 49.0092 77.8626 51.2414H82.7453V53.5466H78.1192C78.1192 56.2949 78.3759 58.0389 78.3759 60.7205H72.9798V56.8777C72.9798 55.3186 72.7232 55.0089 72.7232 53.5466H52.679V60.7205H48.5683V53.5466H36.2342C35.5225 53.5466 35.0438 54.695 34.621 55.2692C33.4715 56.839 31.5262 58.7443 29.9971 59.8819C20.1713 67.1977 7.20742 60.1872 5.65461 53.5445H0.00193787V51.2392H4.88467C4.85879 50.0801 4.62803 50.2199 4.62803 48.9339C4.62803 47.076 4.88467 46.7986 4.88467 45.6029H0.00193787V43.2976C7.19017 43.2976 5.1521 43.7127 6.72864 41.2934C8.11754 39.1623 9.64447 37.7559 11.7688 36.3259C13.9039 34.8872 18.9117 32.597 21.5882 32.5368C21.9031 33.883 22.6148 36.1797 22.6148 37.6613C19.604 37.9108 13.6667 40.5537 11.8227 43.2976H33.6656C35.309 40.2031 36.7713 35.1496 38.1429 31.6186C41.654 22.5781 44.7618 11.2668 48.592 1.81127C49.1377 0.462937 49.3512 0.364017 51.124 0.23499C52.6919 0.123167 54.2943 0.0306982 55.8967 -0.00585938L55.8946 0.000591957ZM52.679 45.6072H70.6657C71.6233 45.6072 71.7117 47.1577 71.9058 47.9598C72.1236 48.8608 72.445 50.2844 72.4665 51.2457H52.679V45.6094V45.6072ZM39.8316 45.6072H48.5683V51.2435H37.263L39.1716 46.9985C39.5836 46.319 39.6245 46.4953 39.8316 45.6072ZM30.0661 51.2435H10.2807C10.1405 49.5748 9.57115 47.6136 10.5373 45.6072H32.6369C32.1775 46.562 31.8281 47.4824 31.3515 48.4264C30.9245 49.2737 30.2947 50.2694 30.0661 51.2457V51.2435ZM52.679 36.3818C59.3647 36.3818 66.6823 36.7624 70.1524 43.2998H52.679V36.3818ZM48.5683 36.8936V43.2998H41.3736C43.3599 39.558 45.3398 38.4398 48.5683 36.8936ZM41.6303 34.8442L48.3807 14.929C48.4023 14.8838 48.4562 14.7999 48.4734 14.7655C48.4928 14.7311 48.5317 14.6537 48.5683 14.6043V31.5153C45.9328 31.7347 43.4354 33.6421 41.6303 34.8464V34.8442ZM60.6457 30.4874H52.679V5.37885C61.5041 5.37885 72.9798 4.29503 72.9798 16.9095C72.9798 21.3158 72.6908 24.6296 69.7103 27.4854C67.8189 29.2961 64.2647 30.4896 60.6457 30.4896V30.4874Z" fill="#971F3A"/>
<path fill-rule="evenodd" clip-rule="evenodd" d="M62.8134 11.1465L64.2433 15.5635L68.8974 15.5527L65.1275 18.2752L66.5747 22.6858L62.8134 19.9504L59.0521 22.6858L60.4993 18.2752L56.7272 15.5527L61.3835 15.5635L62.8134 11.1465Z" fill="#971F3A"/>
</g>
<defs>
<clipPath id="clip0">
<rect width="83" height="63" fill="white"/>
</clipPath>
</defs>
</svg>
