<svg width="60" height="60" viewBox="0 0 60 60" fill="none" xmlns="http://www.w3.org/2000/svg">
<path d="M50.4075 9.5925C50.6252 9.81015 50.7979 10.0685 50.9157 10.3529C51.0335 10.6373 51.0942 10.9422 51.0942 11.25C51.0942 11.5578 51.0335 11.8627 50.9157 12.1471C50.7979 12.4315 50.6252 12.6899 50.4075 12.9075L12.9075 50.4075C12.6898 50.6252 12.4314 50.7978 12.147 50.9156C11.8626 51.0334 11.5578 51.0941 11.25 51.0941C10.9422 51.0941 10.6374 51.0334 10.353 50.9156C10.0686 50.7978 9.81017 50.6252 9.5925 50.4075C9.37483 50.1898 9.20217 49.9314 9.08437 49.647C8.96657 49.3626 8.90594 49.0578 8.90594 48.75C8.90594 48.4422 8.96657 48.1374 9.08437 47.853C9.20217 47.5686 9.37483 47.3102 9.5925 47.0925L47.0925 9.5925C47.3101 9.3748 47.5685 9.2021 47.8529 9.08428C48.1373 8.96646 48.4422 8.90581 48.75 8.90581C49.0578 8.90581 49.3627 8.96646 49.6471 9.08428C49.9315 9.2021 50.1899 9.3748 50.4075 9.5925ZM16.875 22.5C15.3832 22.5 13.9524 21.9074 12.8975 20.8525C11.8426 19.7976 11.25 18.3668 11.25 16.875C11.25 15.3832 11.8426 13.9524 12.8975 12.8975C13.9524 11.8426 15.3832 11.25 16.875 11.25C18.3668 11.25 19.7976 11.8426 20.8525 12.8975C21.9074 13.9524 22.5 15.3832 22.5 16.875C22.5 18.3668 21.9074 19.7976 20.8525 20.8525C19.7976 21.9074 18.3668 22.5 16.875 22.5ZM16.875 26.25C19.3614 26.25 21.746 25.2623 23.5041 23.5041C25.2623 21.746 26.25 19.3614 26.25 16.875C26.25 14.3886 25.2623 12.004 23.5041 10.2459C21.746 8.48772 19.3614 7.5 16.875 7.5C14.3886 7.5 12.004 8.48772 10.2459 10.2459C8.48772 12.004 7.5 14.3886 7.5 16.875C7.5 19.3614 8.48772 21.746 10.2459 23.5041C12.004 25.2623 14.3886 26.25 16.875 26.25ZM43.125 48.75C41.6332 48.75 40.2024 48.1574 39.1475 47.1025C38.0926 46.0476 37.5 44.6168 37.5 43.125C37.5 41.6332 38.0926 40.2024 39.1475 39.1475C40.2024 38.0926 41.6332 37.5 43.125 37.5C44.6168 37.5 46.0476 38.0926 47.1025 39.1475C48.1574 40.2024 48.75 41.6332 48.75 43.125C48.75 44.6168 48.1574 46.0476 47.1025 47.1025C46.0476 48.1574 44.6168 48.75 43.125 48.75ZM43.125 52.5C45.6114 52.5 47.996 51.5123 49.7541 49.7541C51.5123 47.996 52.5 45.6114 52.5 43.125C52.5 40.6386 51.5123 38.254 49.7541 36.4959C47.996 34.7377 45.6114 33.75 43.125 33.75C40.6386 33.75 38.254 34.7377 36.4959 36.4959C34.7377 38.254 33.75 40.6386 33.75 43.125C33.75 45.6114 34.7377 47.996 36.4959 49.7541C38.254 51.5123 40.6386 52.5 43.125 52.5Z" fill="#971F3A"/>
</svg>
