<svg width="151" height="143" viewBox="0 0 151 143" fill="none" xmlns="http://www.w3.org/2000/svg">
<path d="M74.1782 4.06816L75.0594 1.35605L75.4568 1.48519L75.4651 1.51055L75.5 1.49921L75.5349 1.51056L75.5431 1.48518L75.9406 1.35605L76.8218 4.06816L76.3463 4.22266L77.2275 6.93477L77.703 6.78026L78.5842 9.49237L78.1087 9.64688L78.9899 12.359L79.4655 12.2045L80.3467 14.9166L79.8711 15.0711L80.7524 17.7832L81.2279 17.6287L82.1091 20.3408L81.6336 20.4953L82.5148 23.2074L82.9903 23.0529L83.8715 25.765L83.396 25.9195L84.2772 28.6316L84.7528 28.4771L85.634 31.1892L85.1585 31.3438L86.0397 34.0559L86.5152 33.9014L87.3964 36.6135L86.9209 36.768L87.8021 39.4801L88.2776 39.3256L89.1589 42.0377L88.6833 42.1922L89.5645 44.9043L90.0401 44.7498L90.9213 47.4619L90.4458 47.6164L91.327 50.3285L91.8025 50.174L92.6837 52.8861L92.2082 53.0406L92.6488 54.3967L92.7611 54.7422H93.1243H94.5502V54.2422H97.4019V54.7422H100.254V54.2422H103.105V54.7422H105.957V54.2422H108.809V54.7422H111.66V54.2422H114.512V54.7422H117.364V54.2422H120.215V54.7422H123.067V54.2422H125.919V54.7422H128.77V54.2422H131.622V54.7422H134.474V54.2422H137.325V54.7422H140.177V54.2422H143.029V54.7422H145.88V54.2422H148.732V54.6601L148.71 54.6758L148.732 54.7055V54.7422H148.759L149.004 55.0803L146.697 56.7564L146.403 56.3519L144.096 58.0281L144.39 58.4326L142.083 60.1088L141.789 59.7043L139.482 61.3805L139.776 61.785L137.469 63.4611L137.175 63.0566L134.868 64.7328L135.162 65.1373L132.855 66.8135L132.561 66.409L130.254 68.0851L130.548 68.4897L128.241 70.1658L127.947 69.7613L125.64 71.4375L125.934 71.842L123.627 73.5182L123.333 73.1137L121.026 74.7898L121.32 75.1944L119.013 76.8705L118.719 76.466L116.412 78.1422L116.706 78.5467L114.399 80.2229L114.105 79.8184L111.798 81.4946L112.091 81.8991L109.784 83.5752L109.491 83.1707L107.183 84.8469L107.477 85.2514L105.17 86.9276L104.876 86.5231L103.723 87.3612L103.429 87.5747L103.541 87.9202L103.982 89.2762L104.457 89.1217L105.339 91.8338L104.863 91.9883L105.744 94.7004L106.22 94.5459L107.101 97.258L106.626 97.4126L107.507 100.125L107.982 99.9702L108.863 102.682L108.388 102.837L109.269 105.549L109.745 105.394L110.626 108.106L110.15 108.261L111.032 110.973L111.507 110.819L112.388 113.531L111.913 113.685L112.794 116.397L113.27 116.243L114.151 118.955L113.675 119.109L114.556 121.822L115.032 121.667L115.913 124.379L115.438 124.534L116.319 127.246L116.794 127.091L117.676 129.803L117.2 129.958L118.081 132.67L118.557 132.515L119.438 135.228L118.963 135.382L119.844 138.094L120.319 137.94L121.201 140.652L120.803 140.781L120.781 140.765L120.76 140.795L120.725 140.806L120.733 140.832L120.488 141.17L118.181 139.494L118.474 139.089L116.167 137.413L115.873 137.817L113.566 136.141L113.86 135.737L111.553 134.061L111.259 134.465L108.952 132.789L109.246 132.384L106.939 130.708L106.645 131.113L104.338 129.437L104.632 129.032L102.325 127.356L102.031 127.76L99.7241 126.084L100.018 125.68L97.7109 124.003L97.417 124.408L95.11 122.732L95.4039 122.327L93.0968 120.651L92.8029 121.056L90.4958 119.379L90.7897 118.975L88.4827 117.299L88.1888 117.703L85.8817 116.027L86.1756 115.623L83.8686 113.946L83.5747 114.351L81.2676 112.675L81.5615 112.27L79.2545 110.594L78.9606 110.999L76.6535 109.322L76.9474 108.918L75.7939 108.08L75.5 107.866L75.2061 108.08L74.0526 108.918L74.3465 109.322L72.0394 110.999L71.7455 110.594L69.4384 112.27L69.7323 112.675L67.4253 114.351L67.1314 113.946L64.8243 115.623L65.1182 116.027L62.8112 117.703L62.5173 117.299L60.2102 118.975L60.5041 119.379L58.1971 121.056L57.9032 120.651L55.5961 122.327L55.89 122.732L53.5829 124.408L53.289 124.003L50.982 125.68L51.2759 126.084L48.9688 127.76L48.6749 127.356L46.3679 129.032L46.6618 129.437L44.3547 131.113L44.0608 130.708L41.7538 132.384L42.0476 132.789L39.7406 134.465L39.4467 134.061L37.1396 135.737L37.4335 136.141L35.1265 137.817L34.8326 137.413L32.5255 139.089L32.8194 139.494L30.5124 141.17L30.2667 140.832L30.275 140.806L30.2401 140.795L30.2185 140.765L30.1969 140.781L29.7994 140.652L30.6807 137.94L31.1562 138.094L32.0374 135.382L31.5619 135.228L32.4431 132.515L32.9186 132.67L33.7998 129.958L33.3243 129.803L34.2055 127.091L34.6811 127.246L35.5623 124.534L35.0867 124.379L35.968 121.667L36.4435 121.822L37.3247 119.109L36.8492 118.955L37.7304 116.243L38.2059 116.397L39.0871 113.685L38.6116 113.531L39.4928 110.819L39.9684 110.973L40.8496 108.261L40.3741 108.106L41.2553 105.394L41.7308 105.549L42.612 102.837L42.1365 102.682L43.0177 99.9702L43.4932 100.125L44.3744 97.4126L43.8989 97.258L44.7801 94.5459L45.2557 94.7004L46.1369 91.9883L45.6614 91.8338L46.5426 89.1217L47.0181 89.2762L47.4587 87.9202L47.571 87.5747L47.2771 87.3612L46.1236 86.5231L45.8297 86.9276L43.5226 85.2514L43.8165 84.8469L41.5094 83.1707L41.2155 83.5752L38.9085 81.8991L39.2024 81.4946L36.8953 79.8184L36.6014 80.2229L34.2944 78.5467L34.5883 78.1422L32.2812 76.466L31.9873 76.8705L29.6803 75.1944L29.9741 74.7898L27.6671 73.1137L27.3732 73.5182L25.0661 71.842L25.36 71.4375L23.053 69.7613L22.7591 70.1658L20.452 68.4897L20.7459 68.0851L18.4389 66.409L18.145 66.8135L15.8379 65.1373L16.1318 64.7328L13.8247 63.0566L13.5309 63.4611L11.2238 61.785L11.5177 61.3804L9.21063 59.7043L8.91674 60.1088L6.60968 58.4326L6.90358 58.0281L4.59652 56.3519L4.30263 56.7564L1.99557 55.0803L2.2412 54.7422H2.26787V54.7055L2.28946 54.6757L2.26787 54.6601V54.2422H5.11955V54.7422H7.97123V54.2422H10.8229V54.7422H13.6746V54.2422H16.5263V54.7422H19.378V54.2422H22.2296V54.7422H25.0813V54.2422H27.933V54.7422H30.7847V54.2422H33.6364V54.7422H36.488V54.2422H39.3397V54.7422H42.1914V54.2422H45.0431V54.7422H47.8947V54.2422H50.7464V54.7422H53.5981V54.2422H56.4498V54.7422H57.8756H58.2389L58.3512 54.3967L58.7918 53.0406L58.3162 52.8861L59.1974 50.174L59.673 50.3285L60.5542 47.6164L60.0787 47.4619L60.9599 44.7498L61.4354 44.9043L62.3166 42.1922L61.8411 42.0377L62.7223 39.3256L63.1978 39.4801L64.0791 36.768L63.6035 36.6135L64.4848 33.9014L64.9603 34.0559L65.8415 31.3438L65.366 31.1892L66.2472 28.4771L66.7227 28.6316L67.6039 25.9195L67.1284 25.765L68.0096 23.0529L68.4852 23.2074L69.3664 20.4953L68.8908 20.3408L69.7721 17.6287L70.2476 17.7832L71.1288 15.0711L70.6533 14.9166L71.5345 12.2045L72.01 12.359L72.8912 9.64689L72.4157 9.49238L73.2969 6.78027L73.7725 6.93478L74.6537 4.22267L74.1782 4.06816Z" stroke="#971F3A" stroke-dasharray="3 3"/>
</svg>
