<svg width="60" height="60" viewBox="0 0 60 60" fill="none" xmlns="http://www.w3.org/2000/svg">
<path d="M31.875 21.0005C31.875 20.5032 31.6775 20.0263 31.3258 19.6747C30.9742 19.323 30.4973 19.1255 30 19.1255C29.5027 19.1255 29.0258 19.323 28.6742 19.6747C28.3225 20.0263 28.125 20.5032 28.125 21.0005V31.8755H16.875C16.3777 31.8755 15.9008 32.073 15.5492 32.4247C15.1975 32.7763 15 33.2532 15 33.7505C15 34.2478 15.1975 34.7247 15.5492 35.0763C15.9008 35.4279 16.3777 35.6255 16.875 35.6255H30C30.4973 35.6255 30.9742 35.4279 31.3258 35.0763C31.6775 34.7247 31.875 34.2478 31.875 33.7505V21.0005Z" fill="#971F3A"/>
<path d="M24.375 3.75C24.375 3.25272 24.5726 2.77581 24.9242 2.42417C25.2758 2.07254 25.7527 1.875 26.25 1.875H33.75C34.2473 1.875 34.7242 2.07254 35.0758 2.42417C35.4275 2.77581 35.625 3.25272 35.625 3.75C35.625 4.24728 35.4275 4.72419 35.0758 5.07583C34.7242 5.42746 34.2473 5.625 33.75 5.625V7.7625C38.85 8.4975 43.4775 10.6875 47.19 13.9125C47.2048 13.8961 47.2198 13.8798 47.235 13.8638L48.5625 12.5363L47.235 11.2125C46.8829 10.8609 46.6849 10.3839 46.6846 9.88633C46.6842 9.38877 46.8816 8.91145 47.2331 8.55938C47.5847 8.2073 48.0618 8.00931 48.5593 8.00896C49.0569 8.00861 49.5342 8.20592 49.8863 8.5575L55.1888 13.8638C55.3678 14.0367 55.5107 14.2436 55.609 14.4724C55.7072 14.7011 55.7589 14.9472 55.7611 15.1961C55.7633 15.4451 55.7158 15.692 55.6216 15.9224C55.5273 16.1528 55.3881 16.3622 55.212 16.5382C55.036 16.7143 54.8266 16.8535 54.5962 16.9478C54.3657 17.0421 54.1188 17.0895 53.8699 17.0873C53.6209 17.0852 53.3749 17.0335 53.1461 16.9352C52.9174 16.8369 52.7105 16.6941 52.5375 16.515L51.2138 15.1875L49.8863 16.515C49.8703 16.5303 49.854 16.5453 49.8375 16.56C53.6557 20.9676 55.8975 26.521 56.2093 32.3441C56.521 38.1672 54.885 43.9282 51.5592 48.7183C48.2335 53.5083 43.4074 57.0546 37.8426 58.7975C32.2778 60.5405 26.291 60.3808 20.827 58.3437C15.363 56.3067 10.7328 52.5082 7.6671 47.5477C4.6014 42.5872 3.27473 36.7471 3.89642 30.9489C4.51811 25.1508 7.05277 19.7247 11.1004 15.5269C15.1481 11.3291 20.4783 8.5986 26.25 7.76625V5.625C25.7527 5.625 25.2758 5.42746 24.9242 5.07583C24.5726 4.72419 24.375 4.24728 24.375 3.75ZM30 11.25C27.0453 11.2502 24.1195 11.8325 21.3898 12.9634C18.66 14.0944 16.1798 15.7519 14.0907 17.8414C9.87144 22.0613 7.50139 27.7845 7.50189 33.7519C7.50239 39.7192 9.87339 45.442 14.0933 49.6612C18.3132 53.8804 24.0364 56.2505 30.0038 56.25C35.9711 56.2495 41.6939 53.8785 45.9131 49.6586C50.1323 45.4387 52.5024 39.7155 52.5019 33.7481C52.5014 27.7808 50.1304 22.058 45.9105 17.8388C41.6905 13.6196 35.9674 11.2495 30 11.25Z" fill="#971F3A"/>
</svg>
